<svg xmlns="http://www.w3.org/2000/svg" viewBox="0 0 23.92 15"><defs><style>.cls-1{fill:#fff;}</style></defs><title>behance</title><g id="Layer_2" data-name="Layer 2"><g id="Layer_1-2" data-name="Layer 1"><path class="cls-1" d="M22,2H15V0h7Zm1.65,10c-.43,1.28-2,3-5,3s-5.48-1.71-5.48-5.6,2.29-5.83,5.39-5.83a4.94,4.94,0,0,1,5.3,4.36A14.72,14.72,0,0,1,23.92,10H16a2.65,2.65,0,0,0,4.52,2ZM16,8h5a2.24,2.24,0,0,0-2.48-2.22A2.29,2.29,0,0,0,16,8ZM6.48,15H0V0H7c5.49.08,5.59,5.46,2.72,6.92C13.16,8.18,13.28,15,6.48,15ZM3,6H6.58c2.51,0,2.91-3-.31-3H3ZM6.37,9H3v3H6.32C9.36,12,9.18,9,6.37,9Z"/></g></g></svg>